<svg width="24" height="24" viewBox="0 0 24 24" fill="none" xmlns="http://www.w3.org/2000/svg">
<path d="M23.3203 20.9297C23.4776 21.0865 23.6025 21.2727 23.6876 21.4779C23.7728 21.683 23.8166 21.9029 23.8166 22.125C23.8166 22.3471 23.7728 22.567 23.6876 22.7721C23.6025 22.9772 23.4776 23.1635 23.3203 23.3203C23.0019 23.6346 22.5724 23.8109 22.125 23.8109C21.6776 23.8109 21.2481 23.6346 20.9297 23.3203L12 14.3906L3.07031 23.3203C2.75186 23.6346 2.32243 23.8109 1.87499 23.8109C1.42756 23.8109 0.998124 23.6346 0.679681 23.3203C0.522361 23.1635 0.397536 22.9772 0.312364 22.7721C0.227193 22.567 0.18335 22.3471 0.18335 22.125C0.18335 21.9029 0.227193 21.683 0.312364 21.4779C0.397536 21.2727 0.522361 21.0865 0.679681 20.9297L9.60937 12L0.679681 3.07031C0.362664 2.75329 0.184566 2.32333 0.184566 1.875C0.184566 1.65301 0.22829 1.43319 0.313242 1.2281C0.398194 1.02301 0.52271 0.836656 0.679681 0.679685C0.836651 0.522714 1.023 0.398199 1.22809 0.313247C1.43319 0.228295 1.653 0.18457 1.87499 0.18457C2.32332 0.18457 2.75329 0.362669 3.07031 0.679685L12 9.60937L20.9297 0.679685C21.2467 0.362669 21.6767 0.18457 22.125 0.18457C22.5733 0.18457 23.0033 0.362669 23.3203 0.679685C23.6373 0.996702 23.8154 1.42667 23.8154 1.875C23.8154 2.32333 23.6373 2.75329 23.3203 3.07031L14.3906 12L23.3203 20.9297Z" fill="black"/>
</svg>
