<svg width="20" height="22" viewBox="0 0 20 22" fill="none" xmlns="http://www.w3.org/2000/svg">
<path d="M17.9083 1.97622C15.1213 -0.65874 10.5828 -0.65874 7.79883 1.97622L0.0769505 9.27131C0.0266547 9.31886 2.73517e-05 9.3832 2.73517e-05 9.45033C2.73517e-05 9.51747 0.0266547 9.5818 0.0769505 9.62935L1.16866 10.6615C1.21857 10.7085 1.28612 10.7349 1.35653 10.7349C1.42695 10.7349 1.4945 10.7085 1.5444 10.6615L9.26628 3.36643C10.2249 2.46014 11.5 1.96223 12.855 1.96223C14.2101 1.96223 15.4852 2.46014 16.4408 3.36643C17.3994 4.27272 17.926 5.47831 17.926 6.75663C17.926 8.03775 17.3994 9.24054 16.4408 10.1468L8.57102 17.5846L7.29587 18.7902C6.10357 19.9174 4.1657 19.9174 2.97339 18.7902C2.39647 18.2447 2.07991 17.5202 2.07991 16.7482C2.07991 15.9762 2.39647 15.2517 2.97339 14.7063L10.7811 7.32726C10.9793 7.14264 11.2397 7.03915 11.5178 7.03915H11.5207C11.7988 7.03915 12.0562 7.14264 12.2515 7.32726C12.4497 7.51467 12.5562 7.76082 12.5562 8.02376C12.5562 8.2839 12.4467 8.53005 12.2515 8.71467L5.86984 14.7426C5.81954 14.7902 5.79292 14.8545 5.79292 14.9217C5.79292 14.9888 5.81954 15.0531 5.86984 15.1007L6.96155 16.1328C7.01145 16.1798 7.07901 16.2062 7.14942 16.2062C7.21984 16.2062 7.28739 16.1798 7.33729 16.1328L13.716 10.1021C14.3047 9.54544 14.6272 8.80698 14.6272 8.02097C14.6272 7.23495 14.3018 6.49369 13.716 5.93985C12.5 4.7902 10.5237 4.793 9.3077 5.93985L8.55031 6.65873L1.50298 13.3189C1.02467 13.7684 0.645525 14.3033 0.387528 14.8925C0.12953 15.4816 -0.00218245 16.1134 2.73517e-05 16.751C2.73517e-05 18.0461 0.535529 19.2629 1.50298 20.1776C2.50594 21.123 3.81955 21.5958 5.13315 21.5958C6.44676 21.5958 7.76037 21.123 8.76037 20.1776L17.9083 11.5342C19.2544 10.2587 20 8.56082 20 6.75663C20.0029 4.94964 19.2574 3.25174 17.9083 1.97622Z" fill="#626262"/>
</svg>
