<svg width="56" height="56" viewBox="0 0 56 56" fill="none" xmlns="http://www.w3.org/2000/svg">
<rect x="1" y="1" width="54" height="54" rx="27" stroke="#999999" stroke-width="2"/>
<circle cx="32" cy="23" r="6" fill="#C6E7FA"/>
<path d="M28 28C25.9834 28 24.257 27.282 22.8209 25.8459C21.3848 24.4098 20.6667 22.6834 20.6667 20.6667C20.6667 18.65 21.3848 16.9237 22.8209 15.4875C24.257 14.0514 25.9834 13.3334 28 13.3334C30.0167 13.3334 31.7431 14.0514 33.1792 15.4875C34.6153 16.9237 35.3334 18.65 35.3334 20.6667C35.3334 22.6834 34.6153 24.4098 33.1792 25.8459C31.7431 27.282 30.0167 28 28 28ZM39 42.6667H17C15.9917 42.6667 15.1288 42.308 14.4114 41.5905C13.6927 40.8719 13.3334 40.0084 13.3334 39V37.5334C13.3334 36.4945 13.601 35.5393 14.1364 34.6679C14.6705 33.7977 15.3806 33.1334 16.2667 32.675C18.1612 31.7278 20.0862 31.0171 22.0417 30.5429C23.9973 30.0699 25.9834 29.8334 28 29.8334C30.0167 29.8334 32.0028 30.0699 33.9584 30.5429C35.9139 31.0171 37.8389 31.7278 39.7334 32.675C40.6195 33.1334 41.3296 33.7977 41.8637 34.6679C42.399 35.5393 42.6667 36.4945 42.6667 37.5334V39C42.6667 40.0084 42.308 40.8719 41.5905 41.5905C40.8719 42.308 40.0084 42.6667 39 42.6667ZM17 39H39V37.5334C39 37.1973 38.9163 36.8917 38.7489 36.6167C38.5802 36.3417 38.3584 36.1278 38.0834 35.975C36.4334 35.15 34.7681 34.531 33.0875 34.1179C31.407 33.706 29.7112 33.5 28 33.5C26.2889 33.5 24.5931 33.706 22.9125 34.1179C21.232 34.531 19.5667 35.15 17.9167 35.975C17.6417 36.1278 17.4205 36.3417 17.253 36.6167C17.0844 36.8917 17 37.1973 17 37.5334V39ZM28 24.3334C29.0084 24.3334 29.8719 23.974 30.5905 23.2554C31.308 22.5379 31.6667 21.675 31.6667 20.6667C31.6667 19.6584 31.308 18.7955 30.5905 18.078C29.8719 17.3594 29.0084 17 28 17C26.9917 17 26.1288 17.3594 25.4114 18.078C24.6927 18.7955 24.3334 19.6584 24.3334 20.6667C24.3334 21.675 24.6927 22.5379 25.4114 23.2554C26.1288 23.974 26.9917 24.3334 28 24.3334Z" fill="black"/>
</svg>
