<svg width="54" height="65" viewBox="0 0 54 65" fill="none" xmlns="http://www.w3.org/2000/svg">
<rect width="54" height="54" rx="27" fill="#303644"/>
<path d="M13.4004 26.325C13.4004 26 13.4663 25.6782 13.5945 25.3779C13.7226 25.0776 13.9105 24.8048 14.1473 24.575C14.3841 24.3451 14.6652 24.1628 14.9745 24.0384C15.2839 23.9141 15.6155 23.85 15.9504 23.85C16.2853 23.85 16.6169 23.9141 16.9262 24.0384C17.2356 24.1628 17.5167 24.3451 17.7535 24.575C17.9903 24.8048 18.1781 25.0776 18.3063 25.3779C18.4344 25.6782 18.5004 26 18.5004 26.325V36.225C18.5004 36.8815 18.2317 37.511 17.7535 37.9751C17.2753 38.4393 16.6267 38.7 15.9504 38.7C15.2741 38.7 14.6255 38.4393 14.1473 37.9751C13.6691 37.511 13.4004 36.8815 13.4004 36.225V26.325ZM20.2004 26.0495V35.009C20.2001 35.6222 20.3759 36.2234 20.708 36.7451C21.0401 37.2668 21.5154 37.6884 22.0806 37.9625L22.1656 38.0037C23.1089 38.4613 24.1489 38.6997 25.2035 38.7H34.4107C35.197 38.7003 35.9591 38.4361 36.5672 37.9524C37.1754 37.4686 37.592 36.7952 37.7461 36.0468L39.7861 26.1468C39.8847 25.6681 39.8726 25.1742 39.7507 24.7005C39.6289 24.2269 39.4003 23.7854 39.0814 23.4079C38.7625 23.0303 38.3613 22.7262 37.9067 22.5173C37.4521 22.3085 36.9554 22.2001 36.4524 22.2H30.4004V15.6C30.4004 14.7248 30.0422 13.8855 29.4046 13.2666C28.7669 12.6477 27.9021 12.3 27.0004 12.3C26.5495 12.3 26.1171 12.4739 25.7983 12.7833C25.4795 13.0928 25.3004 13.5124 25.3004 13.95V15.0506C25.3004 16.4786 24.8232 17.8682 23.9404 19.0106L21.5604 22.0895C20.6776 23.2319 20.2004 24.6215 20.2004 26.0495Z" fill="#E6E6EE"/>
<path d="M26.5 65L16.5407 47.75L36.4593 47.75L26.5 65Z" fill="#303644"/>
</svg>
