<svg width="131" height="112" viewBox="0 0 131 112" fill="none" xmlns="http://www.w3.org/2000/svg">
<g opacity="0.5">
<path d="M40.375 72.5C52.0354 72.5 61.5208 63.0146 61.5208 51.3542C61.5208 39.6937 52.0354 30.2083 40.375 30.2083C28.7146 30.2083 19.2292 39.6937 19.2292 51.3542C19.2292 63.0146 28.7146 72.5 40.375 72.5ZM40.375 42.2917C45.3896 42.2917 49.4375 46.3396 49.4375 51.3542C49.4375 56.3687 45.3896 60.4167 40.375 60.4167C35.3604 60.4167 31.3125 56.3687 31.3125 51.3542C31.3125 46.3396 35.3604 42.2917 40.375 42.2917ZM40.375 83.0729C26.2375 83.0729 -1.91667 90.1417 -1.91667 104.219V108.75C-1.91667 112.073 0.802078 114.792 4.12499 114.792H76.625C79.9479 114.792 82.6667 112.073 82.6667 108.75V104.219C82.6667 90.1417 54.5125 83.0729 40.375 83.0729ZM12.2208 102.708C17.2958 99.2042 29.5604 95.1562 40.375 95.1562C51.1896 95.1562 63.4542 99.2042 68.5292 102.708H12.2208ZM82.9083 83.4354C89.9167 88.5104 94.75 95.2771 94.75 104.219V114.792H112.875C116.198 114.792 118.917 112.073 118.917 108.75V104.219C118.917 92.0146 97.7708 85.0667 82.9083 83.4354ZM76.625 72.5C88.2854 72.5 97.7708 63.0146 97.7708 51.3542C97.7708 39.6937 88.2854 30.2083 76.625 30.2083C73.3625 30.2083 70.3417 30.9937 67.5625 32.3229C71.3687 37.7 73.6042 44.2854 73.6042 51.3542C73.6042 58.4229 71.3687 65.0083 67.5625 70.3854C70.3417 71.7146 73.3625 72.5 76.625 72.5Z" fill="#C6E7FA"/>
</g>
</svg>
