<svg width="12" height="12" viewBox="0 0 12 12" fill="none" xmlns="http://www.w3.org/2000/svg">
<g clip-path="url(#clip0_609_2783)">
<path d="M10.6995 6.57452C10.8519 6.42215 10.9375 6.21549 10.9375 6C10.9375 5.78451 10.8519 5.57785 10.6995 5.42548C10.5472 5.2731 10.3405 5.1875 10.125 5.1875H6.8125V1.875C6.8125 1.65951 6.7269 1.45285 6.57452 1.30048C6.42215 1.1481 6.21549 1.0625 6 1.0625C5.78451 1.0625 5.57785 1.1481 5.42548 1.30048C5.2731 1.45285 5.1875 1.65951 5.1875 1.875V5.1875H1.875C1.65951 5.1875 1.45285 5.2731 1.30048 5.42548C1.1481 5.57785 1.0625 5.78451 1.0625 6C1.0625 6.21549 1.1481 6.42215 1.30048 6.57452C1.45285 6.7269 1.65951 6.8125 1.875 6.8125H5.1875V10.125C5.1875 10.3405 5.2731 10.5472 5.42548 10.6995C5.57785 10.8519 5.78451 10.9375 6 10.9375C6.21549 10.9375 6.42215 10.8519 6.57452 10.6995C6.7269 10.5472 6.8125 10.3405 6.8125 10.125V6.8125H10.125C10.3405 6.8125 10.5472 6.7269 10.6995 6.57452Z" fill="#BCBCBC" stroke="#BCBCBC" stroke-width="0.5"/>
</g>
<defs>
<clipPath id="clip0_609_2783">
<rect width="12" height="12" fill="white"/>
</clipPath>
</defs>
</svg>
