<svg width="36" height="36" viewBox="0 0 36 36" fill="none" xmlns="http://www.w3.org/2000/svg">
<rect width="36" height="36" rx="18" fill="#303644"/>
<path d="M9.2002 17.55C9.2002 17.3333 9.24287 17.1187 9.32579 16.9185C9.40871 16.7183 9.53025 16.5364 9.68347 16.3832C9.83669 16.23 10.0186 16.1085 10.2188 16.0255C10.419 15.9426 10.6335 15.9 10.8502 15.9C11.0669 15.9 11.2814 15.9426 11.4816 16.0255C11.6818 16.1085 11.8637 16.23 12.0169 16.3832C12.1701 16.5364 12.2917 16.7183 12.3746 16.9185C12.4575 17.1187 12.5002 17.3333 12.5002 17.55V24.15C12.5002 24.5876 12.3264 25.0072 12.0169 25.3167C11.7075 25.6261 11.2878 25.8 10.8502 25.8C10.4126 25.8 9.9929 25.6261 9.68347 25.3167C9.37403 25.0072 9.2002 24.5876 9.2002 24.15V17.55ZM13.6002 17.3663V23.3393C13.6 23.7481 13.7137 24.1489 13.9286 24.4967C14.1435 24.8445 14.4511 25.1255 14.8168 25.3083L14.8718 25.3358C15.4822 25.6408 16.1551 25.7997 16.8375 25.8H22.7951C23.3039 25.8002 23.797 25.624 24.1905 25.3015C24.584 24.979 24.8536 24.5301 24.9533 24.0312L26.2733 17.4312C26.3371 17.112 26.3293 16.7827 26.2504 16.4669C26.1716 16.1512 26.0236 15.8568 25.8173 15.6052C25.611 15.3535 25.3514 15.1507 25.0572 15.0115C24.763 14.8722 24.4416 14.8 24.1162 14.8H20.2002V10.4C20.2002 9.81647 19.9684 9.2569 19.5558 8.84432C19.1433 8.43174 18.5837 8.19995 18.0002 8.19995C17.7085 8.19995 17.4287 8.31584 17.2224 8.52213C17.0161 8.72842 16.9002 9.00821 16.9002 9.29995V10.0337C16.9002 10.9857 16.5914 11.912 16.0202 12.6737L14.4802 14.7263C13.909 15.4879 13.6002 16.4142 13.6002 17.3663Z" fill="#E6E6EE"/>
</svg>
