<svg width="8" height="8" viewBox="0 0 8 8" fill="none" xmlns="http://www.w3.org/2000/svg">
<path d="M7.09436 2.7586L5.11077 2.47031L4.22405 0.672658C4.19983 0.623439 4.15999 0.583595 4.11077 0.559376C3.98733 0.498439 3.83733 0.54922 3.77561 0.672658L2.88889 2.47031L0.9053 2.7586C0.850613 2.76641 0.800613 2.79219 0.762332 2.83125C0.716052 2.87882 0.690549 2.94281 0.691428 3.00917C0.692307 3.07554 0.719496 3.13883 0.767019 3.18516L2.20218 4.58438L1.86311 6.56016C1.85516 6.60612 1.86025 6.65339 1.87779 6.69661C1.89534 6.73982 1.92465 6.77726 1.96239 6.80467C2.00013 6.83208 2.04479 6.84837 2.09132 6.85169C2.13784 6.855 2.18437 6.84522 2.22561 6.82344L3.99983 5.89063L5.77405 6.82344C5.82249 6.84922 5.87874 6.85781 5.93264 6.84844C6.06858 6.825 6.15999 6.6961 6.13655 6.56016L5.79749 4.58438L7.23264 3.18516C7.27171 3.14688 7.29749 3.09688 7.3053 3.04219C7.32639 2.90547 7.23108 2.77891 7.09436 2.7586Z" fill="#595959"/>
</svg>
