<svg width="20" height="20" viewBox="0 0 20 20" fill="none" xmlns="http://www.w3.org/2000/svg">
<path d="M9.99967 5.41667C11.532 5.41157 13.0346 5.83899 14.3348 6.64977C15.635 7.46056 16.68 8.6218 17.3497 10C15.9747 12.8083 13.1663 14.5833 9.99967 14.5833C6.83301 14.5833 4.02467 12.8083 2.64967 10C3.31936 8.6218 4.36437 7.46056 5.66457 6.64977C6.96478 5.83899 8.46739 5.41157 9.99967 5.41667ZM9.99967 3.75C5.83301 3.75 2.27467 6.34167 0.833008 10C2.27467 13.6583 5.83301 16.25 9.99967 16.25C14.1663 16.25 17.7247 13.6583 19.1663 10C17.7247 6.34167 14.1663 3.75 9.99967 3.75ZM9.99967 7.91667C10.5522 7.91667 11.0821 8.13616 11.4728 8.52686C11.8635 8.91756 12.083 9.44747 12.083 10C12.083 10.5525 11.8635 11.0824 11.4728 11.4731C11.0821 11.8638 10.5522 12.0833 9.99967 12.0833C9.44714 12.0833 8.91724 11.8638 8.52654 11.4731C8.13583 11.0824 7.91634 10.5525 7.91634 10C7.91634 9.44747 8.13583 8.91756 8.52654 8.52686C8.91724 8.13616 9.44714 7.91667 9.99967 7.91667ZM9.99967 6.25C7.93301 6.25 6.24967 7.93333 6.24967 10C6.24967 12.0667 7.93301 13.75 9.99967 13.75C12.0663 13.75 13.7497 12.0667 13.7497 10C13.7497 7.93333 12.0663 6.25 9.99967 6.25Z" fill="#C4B8B8"/>
</svg>
