<svg width="43" height="43" viewBox="0 0 43 43" fill="none" xmlns="http://www.w3.org/2000/svg">
<path d="M19.0789 9.14021L7.49997 20.7192C7.32453 20.8946 7.19997 21.0847 7.12629 21.2893C7.05377 21.494 7.01752 21.7133 7.01752 21.9472C7.01752 22.1811 7.05377 22.4004 7.12629 22.6051C7.19997 22.8098 7.32453 22.9999 7.49997 23.1753L19.0789 34.7542C19.4006 35.0759 19.8023 35.2443 20.2842 35.2595C20.7672 35.2735 21.1842 35.1051 21.5351 34.7542C21.8859 34.4326 22.069 34.0309 22.0842 33.549C22.0982 33.0659 21.9298 32.649 21.5789 32.2981L12.9824 23.7016H32.5877C33.0848 23.7016 33.5017 23.5338 33.8386 23.1981C34.1742 22.8613 34.3421 22.4443 34.3421 21.9472C34.3421 21.4501 34.1742 21.0338 33.8386 20.6981C33.5017 20.3613 33.0848 20.1928 32.5877 20.1928H12.9824L21.5789 11.5963C21.9006 11.2747 22.069 10.8654 22.0842 10.3683C22.0982 9.8712 21.9298 9.46185 21.5789 9.14021C21.2573 8.78933 20.8479 8.61389 20.3508 8.61389C19.8538 8.61389 19.4298 8.78933 19.0789 9.14021Z" fill="#303644"/>
</svg>
