<svg width="56" height="56" viewBox="0 0 56 56" fill="none" xmlns="http://www.w3.org/2000/svg">
<path d="M38.6666 17H37.3333V14.3333H34.6666V17H21.3333V14.3333H20H18.6666V15.6667V17H17.3333C15.8666 17 14.6666 18.2 14.6666 19.6667V41C14.6666 42.4667 15.8666 43.6667 17.3333 43.6667H38.6666C40.1333 43.6667 41.3333 42.4667 41.3333 41V19.6667C41.3333 18.2 40.1333 17 38.6666 17ZM38.6666 19.6667V23.6667H17.3333V19.6667H38.6666ZM17.3333 41V26.3333H38.6666V41H17.3333Z" fill="black"/>
<path d="M17.3334 19.68H38.6667V23.6667H17.3334V19.68Z" fill="#C6E7FA"/>
<rect x="1" y="1" width="54" height="54" rx="27" stroke="#999999" stroke-width="2"/>
</svg>
