<svg width="18" height="18" viewBox="0 0 18 18" fill="none" xmlns="http://www.w3.org/2000/svg">
<g clip-path="url(#clip0_435_286)">
<path d="M16.1377 9.95017C16.3897 9.69817 16.5312 9.35639 16.5312 9C16.5312 8.64361 16.3897 8.30183 16.1377 8.04983C15.8857 7.79782 15.5439 7.65625 15.1875 7.65625H10.3438V2.8125C10.3438 2.45611 10.2022 2.11433 9.95017 1.86233C9.69817 1.61032 9.35638 1.46875 9 1.46875C8.64362 1.46875 8.30183 1.61032 8.04983 1.86233C7.79782 2.11433 7.65625 2.45612 7.65625 2.8125V7.65625H2.8125C2.45612 7.65625 2.11433 7.79782 1.86233 8.04983C1.61032 8.30183 1.46875 8.64362 1.46875 9C1.46875 9.35638 1.61032 9.69817 1.86233 9.95017C2.11433 10.2022 2.45611 10.3438 2.8125 10.3438H7.65625V15.1875C7.65625 15.5439 7.79782 15.8857 8.04983 16.1377C8.30183 16.3897 8.64361 16.5312 9 16.5312C9.35639 16.5312 9.69817 16.3897 9.95017 16.1377C10.2022 15.8857 10.3438 15.5439 10.3438 15.1875V10.3438H15.1875C15.5439 10.3438 15.8857 10.2022 16.1377 9.95017Z" fill="#EBEBEB" stroke="#EBEBEB"/>
</g>
<defs>
<clipPath id="clip0_435_286">
<rect width="18" height="18" fill="white"/>
</clipPath>
</defs>
</svg>
