<svg width="16" height="16" viewBox="0 0 16 16" fill="none" xmlns="http://www.w3.org/2000/svg">
<path d="M13 2H3C2.44772 2 2 2.44772 2 3V13C2 13.5523 2.44772 14 3 14H13C13.5523 14 14 13.5523 14 13V3C14 2.44772 13.5523 2 13 2Z" stroke="#7F7F7F" stroke-width="2" stroke-linejoin="round"/>
<path d="M2 9.33315L5.56433 6.06582C5.68447 5.95571 5.84078 5.89342 6.00372 5.89072C6.16666 5.88801 6.32494 5.94509 6.44867 6.05115L10.6667 9.66648M9.33333 7.99982L10.9243 6.40882C11.0378 6.29526 11.1885 6.22647 11.3486 6.21508C11.5087 6.20369 11.6676 6.25047 11.796 6.34682L14 7.99982M2 6.66648V9.99982M14 6.66648V9.99982" stroke="#7F7F7F" stroke-width="2" stroke-linecap="round" stroke-linejoin="round"/>
</svg>
