<svg width="52" height="52" viewBox="0 0 52 52" fill="none" xmlns="http://www.w3.org/2000/svg">
<rect width="52" height="52" rx="26" fill="#D9D9D9"/>
<path d="M15.8438 38.1875C15.8438 38.1875 13.8125 38.1875 13.8125 36.1562C13.8125 34.125 15.8438 28.0312 26 28.0312C36.1562 28.0312 38.1875 34.125 38.1875 36.1562C38.1875 38.1875 36.1562 38.1875 36.1562 38.1875H15.8438ZM26 26C27.6162 26 29.1661 25.358 30.3089 24.2152C31.4517 23.0724 32.0938 21.5224 32.0938 19.9062C32.0938 18.2901 31.4517 16.7401 30.3089 15.5973C29.1661 14.4545 27.6162 13.8125 26 13.8125C24.3838 13.8125 22.8339 14.4545 21.6911 15.5973C20.5483 16.7401 19.9062 18.2901 19.9062 19.9062C19.9062 21.5224 20.5483 23.0724 21.6911 24.2152C22.8339 25.358 24.3838 26 26 26Z" fill="#303644"/>
</svg>
