<svg width="126" height="101" viewBox="0 0 126 101" fill="none" xmlns="http://www.w3.org/2000/svg">
<g opacity="0.5" clip-path="url(#clip0_424_1222)">
<path d="M99.75 52.5C103.927 52.5 107.933 54.1594 110.887 57.1131C113.841 60.0668 115.5 64.0728 115.5 68.25V84C115.5 88.1772 113.841 92.1832 110.887 95.1369C107.933 98.0906 103.927 99.75 99.75 99.75V104.821C99.75 110.386 93.261 113.426 88.9875 109.862L76.8495 99.75H63C58.8228 99.75 54.8168 98.0906 51.8631 95.1369C48.9094 92.1832 47.25 88.1772 47.25 84V68.25C47.25 64.0728 48.9094 60.0668 51.8631 57.1131C54.8168 54.1594 58.8228 52.5 63 52.5H99.75Z" fill="#C6E7FA"/>
<path d="M84 21C88.0174 20.9998 91.883 22.5347 94.8059 25.2907C97.7288 28.0468 99.4881 31.8156 99.7238 35.826L99.75 36.75V47.25C103.767 47.2498 107.633 48.7847 110.556 51.5407C113.479 54.2968 115.238 58.0656 115.474 62.076L115.5 63V84C115.5 88.0173 113.965 91.8829 111.209 94.8059C108.453 97.7288 104.684 99.4881 100.674 99.7237L99.75 99.75V104.821C99.75 110.176 93.7493 113.19 89.4915 110.245L88.9875 109.867L76.8495 99.75H57.75C53.8798 99.7556 50.144 98.3309 47.2605 95.7495L46.5255 95.046L36.75 102.375C32.5973 105.488 26.7435 102.769 26.2815 97.7602L26.25 97.125V89.25C22.2326 89.2502 18.367 87.7153 15.4441 84.9593C12.5212 82.2032 10.7619 78.4344 10.5263 74.424L10.5 73.5V36.75C10.4998 32.7326 12.0347 28.867 14.7907 25.9441C17.5468 23.0212 21.3156 21.2619 25.326 21.0263L26.25 21H84ZM99.75 57.75H57.75C56.3576 57.75 55.0223 58.3031 54.0377 59.2877C53.0531 60.2723 52.5 61.6076 52.5 63V84C52.5 85.3924 53.0531 86.7277 54.0377 87.7123C55.0223 88.6969 56.3576 89.25 57.75 89.25H76.8495C79.3055 89.2511 81.6833 90.1131 83.5695 91.686L89.2815 96.4425C89.4523 94.4798 90.3525 92.6524 91.8045 91.3209C93.2565 89.9894 95.1549 89.2505 97.125 89.25H99.75C101.142 89.25 102.478 88.6969 103.462 87.7123C104.447 86.7277 105 85.3924 105 84V63C105 61.6076 104.447 60.2723 103.462 59.2877C102.478 58.3031 101.142 57.75 99.75 57.75ZM84 31.5H26.25C24.8576 31.5 23.5223 32.0531 22.5377 33.0377C21.5531 34.0223 21 35.3576 21 36.75V73.5C21 74.8924 21.5531 76.2277 22.5377 77.2123C23.5223 78.1969 24.8576 78.75 26.25 78.75H28.875C30.9636 78.75 32.9666 79.5797 34.4435 81.0565C35.9203 82.5334 36.75 84.5364 36.75 86.625V89.25L42.0525 85.2757C42.018 84.8514 42.0005 84.4258 42 84V63C42 58.8228 43.6594 54.8168 46.6131 51.8631C49.5668 48.9094 53.5728 47.25 57.75 47.25H89.25V36.75C89.25 35.3576 88.6969 34.0223 87.7123 33.0377C86.7278 32.0531 85.3924 31.5 84 31.5Z" fill="#C6E7FA"/>
</g>
<defs>
<clipPath id="clip0_424_1222">
<rect width="126" height="126" fill="white"/>
</clipPath>
</defs>
</svg>
