<svg width="200" height="20" viewBox="0 0 200 20" fill="none" xmlns="http://www.w3.org/2000/svg">
<rect x="1.5" y="1.5" width="17" height="17" rx="8.5" fill="#D9D9D9" stroke="#838383" stroke-width="3"/>
<rect x="61.5" y="1.5" width="17" height="17" rx="8.5" fill="#D9D9D9" stroke="#838383" stroke-width="3"/>
<rect x="121.5" y="1.5" width="17" height="17" rx="8.5" fill="#D9D9D9" stroke="#838383" stroke-width="3"/>
<rect x="181.5" y="1.5" width="17" height="17" rx="8.5" fill="#D9D9D9" stroke="#838383" stroke-width="3"/>
<path d="M19 10H60.5" stroke="#838383" stroke-width="3"/>
<path d="M16.5 4.5C16.5 4.5 21 10 40 10M63.5 4.5C63.5 4.5 59 10 40 10M40 10C21 10 16.5 15.5 16.5 15.5M40 10C59 10 63.5 15.5 63.5 15.5M20 7.5V12M60 7.5V12" stroke="#838383" stroke-width="3"/>
<path d="M79.5 10H121" stroke="#838383" stroke-width="3"/>
<path d="M76.5 4.5C76.5 4.5 81.5 10 100.5 10M123.5 4.5C123.5 4.5 119.5 10 100.5 10M100.5 10C81.5 10 76.5 15.5 76.5 15.5M100.5 10C119.5 10 123.5 15.5 123.5 15.5M80.5 7.5V12M120.5 7.5V12" stroke="#838383" stroke-width="3"/>
<path d="M139 10H180.5" stroke="#838383" stroke-width="3"/>
<path d="M136.5 4.5C136.5 4.5 141 10 160 10M183.5 4.5C183.5 4.5 179 10 160 10M160 10C141 10 136.5 15.5 136.5 15.5M160 10C179 10 183.5 15.5 183.5 15.5M140 7.5V12M180 7.5V12" stroke="#838383" stroke-width="3"/>
</svg>
