<svg width="37" height="34" viewBox="0 0 37 34" fill="none" xmlns="http://www.w3.org/2000/svg">
<path d="M7.125 13.625V33.125H0.625V13.625H7.125ZM13.625 33.125C12.763 33.125 11.9364 32.7826 11.3269 32.1731C10.7174 31.5636 10.375 30.737 10.375 29.875V13.625C10.375 12.7312 10.7325 11.9187 11.3337 11.3337L22.0263 0.625L23.7487 2.3475C24.1875 2.78625 24.4638 3.3875 24.4638 4.05375L24.415 4.57375L22.8713 12H33.125C33.987 12 34.8136 12.3424 35.4231 12.9519C36.0326 13.5614 36.375 14.388 36.375 15.25V18.5C36.375 18.9225 36.2938 19.3125 36.1475 19.6862L31.24 31.1425C30.7525 32.3125 29.5987 33.125 28.25 33.125H13.625ZM13.625 29.875H28.2988L33.125 18.5V15.25H18.8412L20.6775 6.605L13.625 13.6737V29.875Z" fill="white"/>
</svg>
