<svg width="36" height="36" viewBox="0 0 36 36" fill="none" xmlns="http://www.w3.org/2000/svg">
<rect width="36" height="36" rx="18" fill="#E6E6EE"/>
<path d="M26.8005 17.45C26.8005 17.8876 26.6266 18.3072 26.3172 18.6167C26.0078 18.9261 25.5881 19.1 25.1505 19.1C24.7129 19.1 24.2932 18.9261 23.9837 18.6167C23.6743 18.3072 23.5005 17.8876 23.5005 17.45V10.85C23.5005 10.4123 23.6743 9.99266 23.9837 9.68323C24.2932 9.37379 24.7129 9.19995 25.1505 9.19995C25.5881 9.19995 26.0078 9.37379 26.3172 9.68323C26.6266 9.99266 26.8005 10.4123 26.8005 10.85V17.45ZM22.4005 17.6337V11.6607C22.4008 11.2519 22.2872 10.8512 22.0725 10.5034C21.8578 10.1557 21.5505 9.87455 21.185 9.69165L21.13 9.66415C20.5186 9.35859 19.8444 9.19966 19.161 9.19995H13.2045C12.6957 9.19975 12.2026 9.3759 11.8091 9.69841C11.4155 10.0209 11.146 10.4698 11.0463 10.9688L9.72627 17.5688C9.66246 17.888 9.67029 18.2174 9.74921 18.5332C9.82812 18.8491 9.97614 19.1435 10.1826 19.3952C10.3891 19.6469 10.6488 19.8496 10.9431 19.9888C11.2374 20.128 11.5589 20.2001 11.8845 20.2H15.8005V24.6C15.8005 25.1834 16.0323 25.743 16.4448 26.1556C16.8574 26.5682 17.417 26.8 18.0005 26.8C18.2922 26.8 18.572 26.6841 18.7783 26.4778C18.9846 26.2715 19.1005 25.9917 19.1005 25.7V24.9663C19.1005 24.0142 19.4092 23.0879 19.9805 22.3263L21.5205 20.2737C22.0917 19.512 22.4005 18.5857 22.4005 17.6337Z" fill="#303644"/>
</svg>
