<svg width="64" height="64" viewBox="0 0 64 64" fill="none" xmlns="http://www.w3.org/2000/svg">
<path d="M15.334 43.6663C15.334 46.4997 17.5007 48.6663 20.334 48.6663H43.6673C46.5007 48.6663 48.6673 46.4997 48.6673 43.6663V30.333H15.334V43.6663ZM43.6673 18.6663H40.334V16.9997C40.334 15.9997 39.6673 15.333 38.6673 15.333C37.6673 15.333 37.0007 15.9997 37.0007 16.9997V18.6663H27.0007V16.9997C27.0007 15.9997 26.334 15.333 25.334 15.333C24.334 15.333 23.6673 15.9997 23.6673 16.9997V18.6663H20.334C17.5007 18.6663 15.334 20.833 15.334 23.6663V26.9997H48.6673V23.6663C48.6673 20.833 46.5007 18.6663 43.6673 18.6663Z" fill="white"/>
<rect width="64" height="64" rx="32" fill="black" fill-opacity="0.05"/>
</svg>
