<svg width="16" height="16" viewBox="0 0 16 16" fill="none" xmlns="http://www.w3.org/2000/svg">
<path d="M3.33268 6.00033V14.0003H0.666016V6.00033H3.33268ZM5.99935 14.0003C5.64573 14.0003 5.30659 13.8598 5.05654 13.6098C4.80649 13.3598 4.66602 13.0206 4.66602 12.667V6.00033C4.66602 5.63366 4.81268 5.30033 5.05935 5.06033L9.44602 0.666992L10.1527 1.37366C10.3327 1.55366 10.446 1.80033 10.446 2.07366L10.426 2.28699L9.79268 5.33366H13.9993C14.353 5.33366 14.6921 5.47413 14.9422 5.72418C15.1922 5.97423 15.3327 6.31337 15.3327 6.66699V8.00033C15.3327 8.17366 15.2993 8.33366 15.2393 8.48699L13.226 13.187C13.026 13.667 12.5527 14.0003 11.9993 14.0003H5.99935ZM5.99935 12.667H12.0194L13.9993 8.00033V6.66699H8.13935L8.89268 3.12033L5.99935 6.02033V12.667Z" fill="black"/>
</svg>
